<svg id="Layer_1" data-name="Layer 1" xmlns="http://www.w3.org/2000/svg" xmlns:xlink="http://www.w3.org/1999/xlink" viewBox="0 0 80 80"><defs><style>.cls-1{fill:#efd13f;}.cls-2{fill:#ddbd36;}.cls-3{fill:#282001;}.cls-4{fill:#fff3c0;}.cls-5{fill:#9b7e07;}.cls-6{fill:url(#radial-gradient);}</style><radialGradient id="radial-gradient" cx="40.65" cy="41" r="40" gradientTransform="translate(6.43 -5.5) rotate(8.41)" gradientUnits="userSpaceOnUse"><stop offset="0" stop-color="#efd13f" stop-opacity="0.3"/><stop offset="0.49" stop-color="#e0c536" stop-opacity="0.31"/><stop offset="0.82" stop-color="#b09c1b" stop-opacity="0.36"/><stop offset="1" stop-color="#817500" stop-opacity="0.4"/></radialGradient></defs><title>bullet</title><circle class="cls-1" cx="40.65" cy="41" r="39.99" transform="translate(-6.21 5.39) rotate(-8.41)"/><path class="cls-2" d="M1.5,32.81A40,40,0,0,0,79.8,49.16Z" transform="translate(-0.65 -1)"/><path class="cls-3" d="M80.48,44.53,40.63,41,78.76,53.18A40.13,40.13,0,0,0,80.48,44.53Z" transform="translate(-0.65 -1)"/><path class="cls-4" d="M40.65,41,3.46,26.29A40.25,40.25,0,0,0,.65,40.59Z" transform="translate(-0.65 -1)"/><path class="cls-5" d="M79.74,32.68,40.67,41l0,0,39.85,3.58a40.13,40.13,0,0,0-.19-8.82C80.15,34.76,80,33.71,79.74,32.68Z" transform="translate(-0.65 -1)"/><circle class="cls-6" cx="40.65" cy="41" r="39.99" transform="translate(-6.21 5.39) rotate(-8.41)"/></svg>